<svg id="alert_icon" xmlns="http://www.w3.org/2000/svg" width="28.37" height="28.37" viewBox="0 0 28.37 28.37">
  <path id="Path_22" data-name="Path 22" d="M28.37,0V28.37H0V0ZM14.886,27.493l-.013,0-.084.041-.024,0-.017,0-.084-.041a.024.024,0,0,0-.028.006l0,.012-.02.506.006.024.012.015.123.087.018,0,.014,0,.123-.087.014-.019,0-.02-.02-.5A.025.025,0,0,0,14.886,27.493Zm.313-.134-.015,0-.219.11-.012.012,0,.013.021.508.006.014.009.008.238.11a.03.03,0,0,0,.034-.009l0-.017-.04-.726a.032.032,0,0,0-.024-.026Zm-.845,0a.027.027,0,0,0-.032.007l-.007.017-.04.726a.029.029,0,0,0,.02.028l.018,0,.238-.11.012-.009,0-.013.02-.508,0-.014-.012-.012-.218-.109Z" fill="none"/>
  <path id="Path_23" data-name="Path 23" d="M15.381,3.285,25.587,20.961a1.773,1.773,0,0,1-1.536,2.66H3.639A1.773,1.773,0,0,1,2.1,20.961L12.31,3.285a1.773,1.773,0,0,1,3.071,0Zm-1.536,14.01a1.182,1.182,0,1,0,1.182,1.182A1.182,1.182,0,0,0,13.845,17.295Zm0-8.275a1.182,1.182,0,0,0-1.174,1.044l-.008.138V14.93a1.182,1.182,0,0,0,2.356.138l.008-.138V10.2A1.182,1.182,0,0,0,13.845,9.02Z" transform="translate(0.34 0.437)" fill="#fff"/>
</svg>
