<svg xmlns="http://www.w3.org/2000/svg" width="41.941" height="32.564" viewBox="0 0 41.941 32.564">
  <g id="cash-management" transform="translate(-1.5 -8.6)">
    <g id="Group_105" data-name="Group 105" transform="translate(24.715 26.731)">
      <ellipse id="Ellipse_5" data-name="Ellipse 5" cx="5.481" cy="2.047" rx="5.481" ry="2.047" fill="none" stroke="#1c9559" stroke-linecap="round" stroke-linejoin="round" stroke-miterlimit="10" stroke-width="1"/>
      <path id="Path_19" data-name="Path 19" d="M47.361,38.9v9.839c0,1.123-2.443,2.047-5.481,2.047S36.4,49.861,36.4,48.739V38.9c0,1.123,2.443,2.047,5.481,2.047S47.361,40.023,47.361,38.9Z" transform="translate(-36.4 -36.853)" fill="none" stroke="#1c9559" stroke-linecap="round" stroke-linejoin="round" stroke-miterlimit="10" stroke-width="1"/>
      <path id="Path_20" data-name="Path 20" d="M60.264,42.847c0,1.123-2.443,2.047-5.481,2.047A14.065,14.065,0,0,1,53,44.762v-3.83a16.191,16.191,0,0,1,1.783-.132C57.82,40.8,60.264,41.724,60.264,42.847Z" transform="translate(-42.039 -37.498)" fill="none" stroke="#1c9559" stroke-linecap="round" stroke-linejoin="round" stroke-miterlimit="10" stroke-width="1"/>
      <path id="Path_21" data-name="Path 21" d="M59.313,43.9v6.537c0,1.123-2.443,2.047-5.481,2.047a11.714,11.714,0,0,1-3.632-.528c1.123-.4,1.849-.924,1.849-1.519V45.815a16.191,16.191,0,0,0,1.783.132C56.869,45.947,59.313,45.023,59.313,43.9Z" transform="translate(-41.087 -38.551)" fill="none" stroke="#1c9559" stroke-linecap="round" stroke-linejoin="round" stroke-miterlimit="10" stroke-width="1"/>
      <path id="Path_22" data-name="Path 22" d="M47.361,43.9c0,1.123-2.443,2.047-5.481,2.047S36.4,45.023,36.4,43.9" transform="translate(-36.4 -38.551)" fill="none" stroke="#1c9559" stroke-linecap="round" stroke-linejoin="round" stroke-miterlimit="10" stroke-width="1"/>
      <path id="Path_23" data-name="Path 23" d="M47.361,48.9c0,1.123-2.443,2.047-5.481,2.047S36.4,50.023,36.4,48.9" transform="translate(-36.4 -40.25)" fill="none" stroke="#1c9559" stroke-linecap="round" stroke-linejoin="round" stroke-miterlimit="10" stroke-width="1"/>
      <path id="Path_24" data-name="Path 24" d="M60.3,48.9c0,1.123-2.443,2.047-5.481,2.047-.594,0-1.123-.066-1.717-.066" transform="translate(-42.072 -40.25)" fill="none" stroke="#1c9559" stroke-linecap="round" stroke-linejoin="round" stroke-miterlimit="10" stroke-width="1"/>
    </g>
    <path id="Path_25" data-name="Path 25" d="M54.625,41.149v6.537c0,1.123-2.443,2.047-5.481,2.047a11.714,11.714,0,0,1-3.632-.528,11.714,11.714,0,0,1-3.632.528c-3.038,0-5.481-.924-5.481-2.047V37.847c0-1.123,2.443-2.047,5.481-2.047s5.481.924,5.481,2.047a1.2,1.2,0,0,1-.33.726,1.06,1.06,0,0,0,.33-.726v1.387a16.191,16.191,0,0,1,1.783-.132c3.038,0,5.481.924,5.481,2.047Z" transform="translate(-11.685 -9.069)" fill="none" stroke="#1c9559" stroke-linecap="round" stroke-linejoin="round" stroke-miterlimit="10" stroke-width="1"/>
    <path id="Path_26" data-name="Path 26" d="M60.3,48.9c0,1.123-2.443,2.047-5.481,2.047-.594,0-1.123-.066-1.717-.066" transform="translate(-17.357 -13.519)" fill="none" stroke="#1c9559" stroke-linecap="round" stroke-linejoin="round" stroke-miterlimit="10" stroke-width="1"/>
    <path id="Path_27" data-name="Path 27" d="M24.121,27.771l2.245,1.255L15.8,35.167l-.264.132-.33-.066L2.33,27.771l-.33-.2L12.829,21.3l2.245,1.255Z" transform="translate(0 -4.144)" fill="none" stroke="#1c9559" stroke-linecap="round" stroke-linejoin="round" stroke-miterlimit="10" stroke-width="1"/>
    <path id="Path_28" data-name="Path 28" d="M48.351,16.892l-8.98,5.217-2.179-1.321-9.047-5.217L25.9,14.317l3.566-2.047L34.55,9.232l.264-.132.264.2L47.955,16.76Z" transform="translate(-8.118)" fill="none" stroke="#1c9559" stroke-linecap="round" stroke-linejoin="round" stroke-miterlimit="10" stroke-width="1"/>
    <path id="Path_29" data-name="Path 29" d="M27.076,28.451,19.02,33.139a1.4,1.4,0,0,0-1.255,0L10.7,29.045a.87.87,0,0,0,0-1.519L18.03,23.3Z" transform="translate(-2.955 -4.823)" fill="none" stroke="#1c9559" stroke-linecap="round" stroke-linejoin="round" stroke-miterlimit="10" stroke-width="1"/>
    <path id="Path_30" data-name="Path 30" d="M43.629,19.179l-5.283,3.1L29.3,17.066,35.441,13.5a1.4,1.4,0,0,0,1.255,0l6.933,4.028A.987.987,0,0,0,43.629,19.179Z" transform="translate(-9.273 -1.495)" fill="none" stroke="#1c9559" stroke-linecap="round" stroke-linejoin="round" stroke-miterlimit="10" stroke-width="1"/>
    <path id="Path_31" data-name="Path 31" d="M36.823,24.792l-3.368,1.981-1.519.858-2.245-1.321-9.047-5.217L18.4,19.839,23.352,17l2.179,1.255,9.113,5.217Z" transform="translate(-5.571 -2.683)" fill="none" stroke="#1c9559" stroke-linecap="round" stroke-linejoin="round" stroke-miterlimit="10" stroke-width="1"/>
    <path id="Path_32" data-name="Path 32" d="M40.5,18.247a2.938,2.938,0,0,0-2.575,0,.8.8,0,0,0,0,1.519,2.938,2.938,0,0,0,2.575,0c.726-.462.726-1.123,0-1.519" transform="translate(-12.016 -3.006)" fill="none" stroke="#1c9559" stroke-linecap="round" stroke-linejoin="round" stroke-miterlimit="10" stroke-width="1"/>
    <path id="Path_33" data-name="Path 33" d="M21.9,29.447a2.938,2.938,0,0,0-2.575,0,.8.8,0,0,0,0,1.519,2.938,2.938,0,0,0,2.575,0,.814.814,0,0,0,0-1.519" transform="translate(-5.698 -6.81)" fill="none" stroke="#1c9559" stroke-linecap="round" stroke-linejoin="round" stroke-miterlimit="10" stroke-width="1"/>
    <path id="Path_34" data-name="Path 34" d="M2,30.8v3.236l13.471,7.792,7.132-4.16" transform="translate(0 -7.371)" fill="none" stroke="#1c9559" stroke-linecap="round" stroke-linejoin="round" stroke-miterlimit="10" stroke-width="1"/>
    <path id="Path_35" data-name="Path 35" d="M47.8,28.758l7.99-4.622V20.9" transform="translate(-15.557 -4.008)" fill="none" stroke="#1c9559" stroke-linecap="round" stroke-linejoin="round" stroke-miterlimit="10" stroke-width="1"/>
    <path id="Path_36" data-name="Path 36" d="M2,35.6v3.17l13.471,7.792,7.2-4.16" transform="translate(0 -9.001)" fill="none" stroke="#1c9559" stroke-linecap="round" stroke-linejoin="round" stroke-miterlimit="10" stroke-width="1"/>
    <path id="Path_37" data-name="Path 37" d="M53.1,31.411l4.49-2.575V25.6" transform="translate(-17.357 -5.605)" fill="none" stroke="#1c9559" stroke-linecap="round" stroke-linejoin="round" stroke-miterlimit="10" stroke-width="1"/>
    <path id="Path_38" data-name="Path 38" d="M2,40.3v3.17l13.471,7.792,7.264-4.16" transform="translate(0 -10.598)" fill="none" stroke="#1c9559" stroke-linecap="round" stroke-linejoin="round" stroke-miterlimit="10" stroke-width="1"/>
    <path id="Path_39" data-name="Path 39" d="M58.507,30.3v3.236L55.8,35.12" transform="translate(-18.274 -7.201)" fill="none" stroke="#1c9559" stroke-linecap="round" stroke-linejoin="round" stroke-miterlimit="10" stroke-width="1"/>
    <path id="Path_40" data-name="Path 40" d="M38.9,31.97v-.33L43.786,28.8v2.707" transform="translate(-12.534 -6.691)" fill="none" stroke="#1c9559" stroke-linecap="round" stroke-linejoin="round" stroke-miterlimit="10" stroke-width="1"/>
  </g>
</svg>
