<svg xmlns="http://www.w3.org/2000/svg" width="43.157" height="46.134" viewBox="0 0 43.157 46.134">
  <g id="club-membership" transform="translate(-16 -7.997)">
    <path id="Path_17" data-name="Path 17" d="M17.488,26.6v9.084L16.161,37.36a.744.744,0,0,0-.151.584l1.478,8.868v2.11a.744.744,0,0,0-.744.744v3.72a.744.744,0,0,0,.744.744H34.6a.744.744,0,0,0,.744-.744v-3.72a.744.744,0,0,0-.744-.744V46.751a.747.747,0,0,0-.024-.184l.768-.206v.328a.744.744,0,0,0,.744.744h4.465v1.488a.744.744,0,0,0-.744.744v3.72a.744.744,0,0,0,.744.744H57.669a.744.744,0,0,0,.744-.744v-3.72a.744.744,0,0,0-.744-.744v-2.11l1.478-8.868A.744.744,0,0,0,59,37.36l-1.341-1.693a.743.743,0,0,0,.013-.139V26.6a3.727,3.727,0,0,0-2.976-3.646V12.462a.744.744,0,0,0-.744-.744H42.193l-.849-3.169a.744.744,0,0,0-.911-.526l-23,6.163a.744.744,0,0,0-.526.912l2.25,8.4a3.72,3.72,0,0,0-1.669,3.1ZM36.834,45.945v-4.41a5.219,5.219,0,0,1,4.41,4.41Zm20.09,6.7H41.3V50.41H56.925ZM54.692,31.808V24.5a2.236,2.236,0,0,1,1.488,2.1v7.2l-1.5-1.89a.746.746,0,0,0,.008-.106Zm2.932,6.217-1.434,8.6a.75.75,0,0,0-.01.122v2.171H42.043V47.495h4.464a.744.744,0,0,0,.744-.744V45.262a5.214,5.214,0,0,1,5.209-5.209.744.744,0,0,0,.707-.977L51.51,34.048v0l-.615-1.865a.85.85,0,0,1,1.474-.794Zm-8.144-5.379.478,1.451a6.7,6.7,0,1,1,1.757-4.522v0a2.333,2.333,0,0,0-2.235,3.068ZM53.2,13.206v4.41a5.219,5.219,0,0,1-4.41-4.41Zm-10.459,0h4.549a6.708,6.708,0,0,0,5.91,5.91V30.124l-.018-.014c.012-.178.018-.357.018-.535a8.184,8.184,0,1,0-2.725,6.1l.978,2.966a6.708,6.708,0,0,0-5.693,6.622v.744H42.752a6.709,6.709,0,0,0-5.918-5.971V19.116A6.708,6.708,0,0,0,42.745,13.206Zm-1.5,0a5.219,5.219,0,0,1-4.41,4.41v-4.41ZM40.1,9.653l.553,2.065h-4.3a5.22,5.22,0,0,1-.512-.924ZM22.789,31.386a.85.85,0,0,1,1.474.794l-2.273,6.9a.744.744,0,0,0,.707.977,5.214,5.214,0,0,1,5.209,5.209V46.75a.744.744,0,0,0,.744.744h4.465v1.427H18.976V46.751a.749.749,0,0,0-.01-.122l-1.434-8.6Zm6.367,12.106a5.194,5.194,0,0,1,2.155,2.514H29.393v-.744A6.678,6.678,0,0,0,29.155,43.493ZM28.233,41.5a6.707,6.707,0,0,0-4.532-2.86l1.22-3.7a8.244,8.244,0,0,0,4.053,2.19l1.452,5.419A6.7,6.7,0,0,0,28.233,41.5Zm-2.777-8.185.221-.67a2.331,2.331,0,0,0-1.673-3,6.7,6.7,0,0,1,1.642-4.935l2.882,10.756a6.741,6.741,0,0,1-3.071-2.148Zm8.4,19.327H18.232V50.41H33.858Zm1.488-7.822-2.586.693-1.141-4.259a5.215,5.215,0,0,1,3.727.994Zm0-16.2a.739.739,0,0,1-1.073-.46l-.385-1.437a.744.744,0,1,0-1.437.385l.193.719-.719.193a.744.744,0,1,0,.385,1.437l.842-.226a2.218,2.218,0,0,0,2.194.939v4.024a6.7,6.7,0,0,1-.65-13.08c.214-.057.432-.1.65-.14ZM34.39,11.182a6.719,6.719,0,0,0,.956,1.681V19.47a8.185,8.185,0,0,0,0,16.226v4.8a6.7,6.7,0,0,0-4.116-.692L28.524,29.7,25.817,19.6A6.708,6.708,0,0,0,30,12.359Zm-5.842,1.565a5.221,5.221,0,0,1-3.119,5.4l-1.141-4.261Zm-4.8,4.868L25.2,23.044a8.19,8.19,0,0,0-2.679,6.73c-.042.019-.084.036-.125.057l-2.329-8.692a6.693,6.693,0,0,0,3.678-3.524ZM18.537,15.43l4.26-1.142a5.219,5.219,0,0,1-3.119,5.4ZM18.976,26.6a2.231,2.231,0,0,1,.6-1.527l1.6,5.954-2.2,2.777Z" transform="translate(0 0)" fill="#1c9559"/>
    <path id="Path_18" data-name="Path 18" d="M281.673,217.488H280.8a2.232,2.232,0,0,0-4.337.744.744.744,0,1,1-1.488,0v-1.488a.744.744,0,1,0-1.488,0v.744h-.744a.744.744,0,1,0,0,1.488h.872a2.232,2.232,0,0,0,4.337-.744.744.744,0,0,1,1.488,0v1.488a.744.744,0,0,0,1.488,0v-.744h.744a.744.744,0,1,0,0-1.488Z" transform="translate(-232.189 -188.657)" fill="#1c9559"/>
  </g>
</svg>
