<svg xmlns="http://www.w3.org/2000/svg" width="40.603" height="40.145" viewBox="0 0 40.603 40.145">
  <g id="club-view-online" transform="translate(-13.915 -20)">
    <path id="Path_14" data-name="Path 14" d="M57.655,30a4.494,4.494,0,0,0-3.322,1.519,5.417,5.417,0,0,0,0,7.118h0a4.393,4.393,0,0,0,6.644,0,5.417,5.417,0,0,0,0-7.118A4.494,4.494,0,0,0,57.655,30Zm2.065,7.5a2.7,2.7,0,0,1-4.13,0h0a3.724,3.724,0,0,1,0-4.85,2.7,2.7,0,0,1,4.13,0A3.724,3.724,0,0,1,59.72,37.5Z" transform="translate(-22.544 -5.768)" fill="#1c9559"/>
    <path id="Path_15" data-name="Path 15" d="M24.846,38.621H56.1a.846.846,0,0,0,.846-.846V20.846A.846.846,0,0,0,56.1,20H24.846a.846.846,0,0,0-.846.846V37.775A.846.846,0,0,0,24.846,38.621Zm30.407-7.427a6.606,6.606,0,0,0-5.722,5.734H31.41a6.61,6.61,0,0,0-5.718-5.734V27.512a6.615,6.615,0,0,0,5.73-5.819h18.1a6.615,6.615,0,0,0,5.734,5.819ZM25.693,32.9A4.9,4.9,0,0,1,29.7,36.928H25.693Zm25.549,4.025A4.913,4.913,0,0,1,55.254,32.9v4.025ZM55.254,25.8a4.909,4.909,0,0,1-4.025-4.109h4.025Zm-25.54-4.109a4.9,4.9,0,0,1-4.02,4.109V21.693Z" transform="translate(-5.817)" fill="#1c9559"/>
    <path id="Path_16" data-name="Path 16" d="M53.474,73.277a.846.846,0,0,0-.918-.512,37.587,37.587,0,0,0-4.012.889l-.25-.178a12.185,12.185,0,0,0-6.141-2.268,8.9,8.9,0,0,0-4.782.7,8.887,8.887,0,0,1-4.422.732c-2.738-.229-5.294-.2-6.488,2.67a3.056,3.056,0,0,0-.237,1.443c-2.294-1.071-4.77-2.209-5.756-2.569-1.422-.525-4.071-1.494-5.739.423a3.128,3.128,0,0,0-.779,2.577,5.307,5.307,0,0,0,2.734,3.458c2.772,1.629,10.771,5.925,14,7.241,2.717,1.121,5.688,1.5,12.091-.068,5.574-1.367,6.712,1.2,6.771,1.27a.846.846,0,0,0,.491.5.821.821,0,0,0,.3.055.847.847,0,0,0,.394-.1C53.5,88.081,54.3,82,54.477,80.175a16.289,16.289,0,0,0-1-6.9Zm-.694,6.771c-.385,3.923-1.337,6.45-2.26,7.537a5.982,5.982,0,0,0-4.786-1.841,14.058,14.058,0,0,0-3.352.423c-5.984,1.469-8.578,1.168-11.046.148-3.056-1.27-11-5.5-13.788-7.131a3.687,3.687,0,0,1-1.921-2.268,1.414,1.414,0,0,1,.364-1.189c.66-.753,1.714-.736,3.889.059C21.048,76.21,24.6,77.9,27.2,79.1l1.232.58a10.109,10.109,0,0,0,1.549.7,8.031,8.031,0,0,0,6.716.148.847.847,0,0,0-.707-1.54,6.33,6.33,0,0,1-5.358-.174h0c-.237-.1-.753-.339-1.414-.648A2.933,2.933,0,0,1,28,77a1.227,1.227,0,0,1,.025-1.033c.635-1.528,1.693-1.9,4.782-1.638a10.652,10.652,0,0,0,5.163-.846,7.186,7.186,0,0,1,3.965-.609,10.642,10.642,0,0,1,5.375,1.968,1.7,1.7,0,0,0,1.5.487c1.215-.36,2.539-.631,3.314-.779a14.389,14.389,0,0,1,.656,5.481Z" transform="translate(0 -29.489)" fill="#1c9559"/>
  </g>
</svg>
