<svg xmlns="http://www.w3.org/2000/svg" xmlns:xlink="http://www.w3.org/1999/xlink" width="35" height="35" viewBox="0 0 35 35">
  <defs>
    <clipPath id="clip-path">
      <rect id="Rectangle_28" data-name="Rectangle 28" width="35" height="35" transform="translate(1139.731 467.365)" fill="#fff"/>
    </clipPath>
  </defs>
  <g id="doller_icon" transform="translate(-1139.731 -467.365)" clip-path="url(#clip-path)">
    <path id="dollar" d="M13.727,0V4.37H10.449A5.521,5.521,0,0,0,4.988,9.831v2.185A6.276,6.276,0,0,0,9.75,18.177l11.186,2.884a2.675,2.675,0,0,1,1.486,1.923v2.185a1.082,1.082,0,0,1-1.092,1.092H10.406A2.447,2.447,0,0,1,9.313,26V21.891H4.944v4.37a4.105,4.105,0,0,0,1.923,3.408,6.169,6.169,0,0,0,3.539.961h3.277V35h4.37V30.63H21.33a5.464,5.464,0,0,0,5.462-5.462V22.984a6.276,6.276,0,0,0-4.763-6.161L10.843,13.939a2.675,2.675,0,0,1-1.486-1.923V9.831a1.082,1.082,0,0,1,1.092-1.092H21.373A2.63,2.63,0,0,1,22.466,9v4.107h4.37V8.739a4.105,4.105,0,0,0-1.923-3.408,6.169,6.169,0,0,0-3.539-.961H18.1V0Z" transform="translate(1141.342 467.365)" fill="#fff"/>
  </g>
</svg>
