<svg xmlns="http://www.w3.org/2000/svg" width="40.157" height="44.623" viewBox="0 0 40.157 44.623">
  <path id="grow-business" d="M39.837,6,37.93,4.32l1.907-1.679A.941.941,0,0,0,39.215.993H31.324V.654a.654.654,0,0,0-1.308,0v8.82l-5.371,2.917a2.069,2.069,0,0,0-.212-.687l-.757-1.478a2.069,2.069,0,0,0-2.781-.9l-.585.3a2.066,2.066,0,0,0-.9,2.782l.757,1.478a2.054,2.054,0,0,0,.745.809,5.729,5.729,0,0,0-.788,1.9l-.141.5a.654.654,0,0,0,.451.807.644.644,0,0,0,.178.025.654.654,0,0,0,.629-.476l.141-.5c.287-1.011.463-1.552,1.023-1.856l1-.546.124-.063c.041-.021.08-.045.119-.068l7.16-3.888a2.768,2.768,0,0,1-1.32,2.222l-4.656,2.829-.016.01-1.449.88A.654.654,0,0,0,24,17.618l-1.1,3.324-.8.33-2.186.9.63-2.226a.654.654,0,1,0-1.259-.356l-1,3.519a.628.628,0,0,0-.023.142L18,28.03a2.189,2.189,0,0,1-.053.705L15.054,34.82h-2.1a2.235,2.235,0,0,0-2.233,2.233v1.888a2.215,2.215,0,0,0-.925-.2H4.457a2.235,2.235,0,0,0-2.233,2.233v2.342H.654a.654.654,0,0,0,0,1.308h38.56a.654.654,0,0,0,0-1.308h-1.7V26.457a2.235,2.235,0,0,0-2.233-2.233H31.324V12.816a4.079,4.079,0,0,0,.657-3.5.654.654,0,0,0-.657-.48V7.646h7.89A.941.941,0,0,0,39.837,6ZM20.529,11.235a.753.753,0,0,1,.376-.443l.585-.3a.759.759,0,0,1,1.021.329l.757,1.478a.76.76,0,0,1-.252.975l-.213.115-.45.23a.759.759,0,0,1-1.021-.33l-.757-1.478a.754.754,0,0,1-.047-.579ZM19.215,35.022a2.22,2.22,0,0,0-.718-.191l.718-.954Zm3.105-5.27a2.464,2.464,0,0,0,.472-1.172c.018-.084.34-1.847.34-1.847s.305.19.337.2a.069.069,0,0,1,.04.057l.356,3.617H21.673Zm3.867-3.61-.552,4.465h-.456l-.368-3.741a1.378,1.378,0,0,0-.77-1.106l-.658-.417.438-2.428s1.846,2.193,1.889,2.249c.382.5.513.7.477.979Zm-7.064,3.165a3.545,3.545,0,0,0,.183-1.214l.238-4.363,3.025-1.24-.55,3.046c0,.008,0,.017,0,.025l-.455,2.518a2.491,2.491,0,0,1-.274.871l-4.419,5.87H16.5ZM3.532,40.972a.925.925,0,0,1,.925-.924H9.795a.926.926,0,0,1,.925.924v2.343H3.532Zm8.5,0V37.053a.926.926,0,0,1,.925-.925H18.29a.926.926,0,0,1,.925.925v6.261H12.027V40.972ZM36.205,26.458V43.315H29.018V39.393a.654.654,0,0,0-1.308,0v3.921H20.523V32.843a.925.925,0,0,1,.925-.924h5.338a.925.925,0,0,1,.925.924v3.278a.654.654,0,0,0,1.308,0V26.458a.926.926,0,0,1,.925-.925H35.28a.926.926,0,0,1,.925.925Zm-6.262-2.233a2.235,2.235,0,0,0-2.233,2.233v4.354a2.214,2.214,0,0,0-.758-.194l.533-4.314a2.526,2.526,0,0,0-.739-1.937c-.044-.057-2.586-3.076-2.586-3.076l1.56-4.715,4.3-2.61v10.26ZM31.324,6.338V2.3h6.919l-1.49,1.312a.941.941,0,0,0,0,1.413l1.49,1.312H31.324Zm0,0" fill="#1c9559"/>
</svg>
