<svg xmlns="http://www.w3.org/2000/svg" width="40.469" height="40.452" viewBox="0 0 40.469 40.452">
  <path id="happy-customer" d="M39.46,23.235l-5.824-2.427V19.065a6.493,6.493,0,0,0,3.133-4.349H36.9a1.958,1.958,0,0,0,.054-3.916l.64-1.483A5.273,5.273,0,0,0,34.936,2.43L33.114,1.6a6.689,6.689,0,0,0-6.679.726l-1.016.766a4.064,4.064,0,0,0-2.841,5.252,6.77,6.77,0,0,0-2.977.072A5.252,5.252,0,0,0,16.66,2.43L14.838,1.6a6.689,6.689,0,0,0-6.679.726l-1.016.766a4.066,4.066,0,0,0-2.63,5.758L5.488,10.8a1.959,1.959,0,1,0,.081,3.916H5.7a6.5,6.5,0,0,0,3.133,4.348v1.744L3.008,23.235A3.255,3.255,0,0,0,1,26.248v8.7a.653.653,0,0,0,.653.653H6.222v5.222a.653.653,0,0,0,.653.653h28.72a.653.653,0,0,0,.653-.653V35.6h4.569a.653.653,0,0,0,.653-.653v-8.7a3.255,3.255,0,0,0-2.008-3.012ZM23.436,9.969l1.822.831a3.967,3.967,0,0,1,2,5.182l-.2.447-.669-1.352a.653.653,0,0,0-.979-.23l-1.044.783a5.222,5.222,0,0,1-6.266,0l-1.044-.783a.646.646,0,0,0-.541-.113.653.653,0,0,0-.435.343l-.721,1.448-.539-1.078a2.76,2.76,0,0,1,2.467-3.995,3.049,3.049,0,0,1,2.541,1.36l.2.308L21.12,12.4l-.2-.307a4.348,4.348,0,0,0-2.461-1.778,5.361,5.361,0,0,1,4.982-.341Zm4.326,9.316h.653a.653.653,0,1,1,0,1.305h-.653Zm-8.485,7.532a6.522,6.522,0,0,0,3.916,0v1.336l-1.958,1.958-1.958-1.958Zm1.958-1a5.228,5.228,0,0,1-5.222-5.222V18.134L16.9,16.36l.419.314a6.527,6.527,0,0,0,7.833,0l.419-.314.886,1.773V20.59a5.228,5.228,0,0,1-5.222,5.222ZM14.707,20.59h-.653a.653.653,0,1,1,0-1.305h.653ZM6.222,33.671V34.3H2.305v-8.05a1.954,1.954,0,0,1,1.2-1.806l6.226-2.594a.653.653,0,0,0,.4-.6V18.674a.683.683,0,0,0-.378-.592,5.2,5.2,0,0,1-2.854-4.091.653.653,0,0,0-.649-.581H5.569a.653.653,0,1,1,0-1.305h.653a.653.653,0,0,0,.653-.657l0-.653a.653.653,0,0,0-.069-.287L5.681,8.267A2.76,2.76,0,0,1,7.566,4.338a.669.669,0,0,0,.255-.117l1.123-.849A5.364,5.364,0,0,1,14.3,2.791l1.824.828a3.967,3.967,0,0,1,2,5.182l-.106.245a6.323,6.323,0,0,0-.713.46l-1.029.771h0a4.061,4.061,0,0,0-2.62,5.752l.976,1.95h-.571a1.958,1.958,0,0,0,0,3.916h.783a6.543,6.543,0,0,0,3.133,4.339v1.693l-9.359,2.6a3.273,3.273,0,0,0-2.39,3.144Zm28.72,6.5H31.025V34.95H29.72v5.222H12.749V34.95H11.444v5.222H7.527v-6.5a1.963,1.963,0,0,1,1.436-1.886l9.47-2.63L20.775,31.5a.653.653,0,0,0,.923,0l2.341-2.341,9.466,2.63a1.963,1.963,0,0,1,1.436,1.886ZM40.163,34.3H36.247v-.627a3.273,3.273,0,0,0-2.39-3.144l-9.359-2.6V26.234A6.543,6.543,0,0,0,27.631,21.9h.783a1.958,1.958,0,1,0,0-3.916h-.6l.64-1.482A5.273,5.273,0,0,0,25.8,9.61l-1.514-.69-.326-.653a2.76,2.76,0,0,1,1.884-3.93.669.669,0,0,0,.255-.117l1.123-.849a5.364,5.364,0,0,1,5.352-.581L34.4,3.62a3.967,3.967,0,0,1,2,5.182l-.751,1.737a.653.653,0,0,0-.054.261l0,.653a.653.653,0,0,0,.653.653H36.9a.653.653,0,0,1,0,1.305h-.689a.653.653,0,0,0-.649.581,5.2,5.2,0,0,1-2.872,4.1.653.653,0,0,0-.362.584v2.569a.653.653,0,0,0,.4.6l6.229,2.6a1.954,1.954,0,0,1,1.2,1.806Z" transform="translate(-1 -1.025)" fill="#fff"/>
</svg>
