<svg xmlns="http://www.w3.org/2000/svg" xmlns:xlink="http://www.w3.org/1999/xlink" width="35" height="35" viewBox="0 0 35 35">
  <defs>
    <clipPath id="clip-path">
      <rect id="Rectangle_25" data-name="Rectangle 25" width="35" height="35" transform="translate(713 356.365)" fill="#fff"/>
    </clipPath>
  </defs>
  <g id="membership_icon" transform="translate(-713 -356.365)" clip-path="url(#clip-path)">
    <path id="baseline-card-membership" d="M35.5,4H7.5A3.488,3.488,0,0,0,4,7.5V26.75a3.488,3.488,0,0,0,3.5,3.5h7V39l7-3.5,7,3.5V30.25h7a3.488,3.488,0,0,0,3.5-3.5V7.5A3.488,3.488,0,0,0,35.5,4Zm0,22.75H7.5v-3.5h28Zm0-8.75H7.5V7.5h28Z" transform="translate(709 352.365)" fill="#fff"/>
  </g>
</svg>
