<svg xmlns="http://www.w3.org/2000/svg" width="41.517" height="41.489" viewBox="0 0 41.517 41.489">
  <g id="positive-reviews" transform="translate(-1.486 -1.504)">
    <path id="Path_57" data-name="Path 57" d="M26.722,20.53H21.544l1.079-3.585a4.282,4.282,0,0,0-2.755-5.328,2.34,2.34,0,0,0-3,1.66l-.166.7a14.291,14.291,0,0,1-3.751,6.639l-.946.93a2.589,2.589,0,0,0-2.008-.979H8.779A2.589,2.589,0,0,0,6.19,23.12V33.809A2.589,2.589,0,0,0,8.779,36.4H9.991A2.573,2.573,0,0,0,12.2,35.137l.232.116a10.872,10.872,0,0,0,4.83,1.145H23.22a5.942,5.942,0,0,0,4.98-2.656,10.523,10.523,0,0,0,1.776-5.859V23.75a3.22,3.22,0,0,0-3.253-3.22ZM10.854,33.809a.93.93,0,0,1-.93.93H8.779a.93.93,0,0,1-.93-.93V23.119a.93.93,0,0,1,.93-.93H9.991a.93.93,0,0,1,.863.93Zm17.428-5.926a8.93,8.93,0,0,1-1.494,4.98,4.3,4.3,0,0,1-3.569,1.909H17.261a9.179,9.179,0,0,1-4.083-.963l-.664-.332V23.285l1.527-1.527a15.984,15.984,0,0,0,4.2-7.4l.166-.681a.714.714,0,0,1,.332-.432.664.664,0,0,1,.531,0,2.623,2.623,0,0,1,1.66,3.32l-1.394,4.664a.83.83,0,0,0,.133.73.8.8,0,0,0,.664.332h6.291a1.56,1.56,0,0,1,1.56,1.56Z" transform="translate(3.104 6.595)" fill="#fff"/>
    <path id="Path_58" data-name="Path 58" d="M12.095,11.124l-.531,3.071A1.809,1.809,0,0,0,12.294,16a1.842,1.842,0,0,0,1.079.365,1.959,1.959,0,0,0,.863-.216l2.838-1.461,2.772,1.461a1.847,1.847,0,0,0,2.672-1.942l-.465-3.087,2.174-2.158a1.826,1.826,0,0,0,.481-1.892,1.859,1.859,0,0,0-1.494-1.261l-3.1-.448L18.734,2.526a1.859,1.859,0,0,0-3.32,0L14.037,5.331l-3.1.448A1.859,1.859,0,0,0,9.439,7.041,1.826,1.826,0,0,0,9.92,8.966Zm-1-3.7,3.535-.515a.813.813,0,0,0,.78-.448l1.66-3.2a.183.183,0,0,1,.332,0l1.66,3.2a.813.813,0,0,0,.631.448l3.535.515a.2.2,0,0,1,.149.133.183.183,0,0,1,0,.183l-2.556,2.49a.88.88,0,0,0-.249.747l.614,3.5a.149.149,0,0,1-.083.183.166.166,0,0,1-.2,0L17.755,13a.78.78,0,0,0-.764,0l-3.17,1.66a.177.177,0,0,1-.266-.183l.614-3.5a.88.88,0,0,0-.249-.747l-2.556-2.49a.183.183,0,0,1,0-.183.2.2,0,0,1-.2-.133Z" transform="translate(5.183)" fill="#fff"/>
    <path id="Path_59" data-name="Path 59" d="M11.2,18.308a1.66,1.66,0,0,0,1.66-1.975l-.448-2.523L14.273,12a1.66,1.66,0,0,0-.93-2.872L10.8,8.764,9.659,6.457a1.743,1.743,0,0,0-3.021,0L5.493,8.764l-2.54.365A1.66,1.66,0,0,0,2.024,12L3.866,13.81l-.448,2.523a1.687,1.687,0,0,0,2.457,1.776l2.274-1.2,2.274,1.2a1.66,1.66,0,0,0,.78.2ZM8.149,15.155a.764.764,0,0,0-.382.1L5.061,16.615l.6-2.955a.88.88,0,0,0-.332-.747L3.186,10.773l2.988-.432a.78.78,0,0,0,.614-.448L8.165,7.188,9.51,9.893a.78.78,0,0,0,.614.448l2.988.481L10.97,12.914a.88.88,0,0,0-.249.747l.481,2.988L8.53,15.254a.764.764,0,0,0-.382-.1Z" transform="translate(0 2.692)" fill="#fff"/>
    <path id="Path_60" data-name="Path 60" d="M31.7,10.275A1.66,1.66,0,0,0,30.344,9.13L27.8,8.764,26.659,6.457a1.743,1.743,0,0,0-3.021,0L22.493,8.764l-2.54.365A1.66,1.66,0,0,0,19.024,12l1.842,1.809-.448,2.523a1.687,1.687,0,0,0,2.457,1.776l2.274-1.2,2.274,1.2a1.668,1.668,0,0,0,2.44-1.776l-.448-2.523L31.257,12a1.66,1.66,0,0,0,.448-1.726ZM27.97,12.914a.88.88,0,0,0-.249.747l.481,2.988L25.53,15.254a.78.78,0,0,0-.764,0l-2.706,1.361.6-2.955a.88.88,0,0,0-.332-.747l-2.141-2.141,2.988-.432a.78.78,0,0,0,.614-.448l1.378-2.706L26.51,9.893a.78.78,0,0,0,.614.448l2.988.481Z" transform="translate(11.217 2.692)" fill="#fff"/>
  </g>
</svg>
