<svg xmlns="http://www.w3.org/2000/svg" width="45.72" height="42.607" viewBox="0 0 45.72 42.607">
  <g id="product-listing" transform="translate(-9 -25.634)">
    <path id="Path_41" data-name="Path 41" d="M51.935,43.993H49.63a2.271,2.271,0,0,0-2.167-1.666H45V36.309a.635.635,0,0,0-.31-.561L27.332,25.721a.641.641,0,0,0-.644,0L9.322,35.748A.646.646,0,0,0,9,36.309V56.363a.648.648,0,0,0,.324.561L26.691,66.951a.648.648,0,0,0,.324.087.681.681,0,0,0,.333-.087l9.139-5.271V65.49a2.743,2.743,0,0,0,2.766,2.75H51.935a2.759,2.759,0,0,0,2.784-2.75v-18.7A2.8,2.8,0,0,0,51.935,43.993Zm-4.45-.37a.94.94,0,0,1,.94.94v.063a.94.94,0,0,1-.94.94H43.721a.94.94,0,0,1-.94-.94v-.063a.94.94,0,0,1,.94-.94ZM27.015,27.03,34.232,31.2l-16.07,9.278-7.216-4.166ZM26.4,65.268,10.3,55.989V37.429l16.1,9.279Zm.616-19.681-7.558-4.364,16.07-9.278,7.559,4.364Zm9.472,1.2v13.4l-8.792,5.084V46.708l16.011-9.279v4.9h.02a2.271,2.271,0,0,0-2.167,1.666H39.254A2.78,2.78,0,0,0,36.487,46.786Zm16.937,18.7a1.462,1.462,0,0,1-1.489,1.455H39.254a1.446,1.446,0,0,1-1.471-1.455v-18.7a1.483,1.483,0,0,1,1.471-1.5h2.331a2.216,2.216,0,0,0,2.142,1.573h3.737A2.216,2.216,0,0,0,49.6,45.288h2.331a1.5,1.5,0,0,1,1.489,1.5Z" transform="translate(0)" fill="#1c9559"/>
    <path id="Path_42" data-name="Path 42" d="M337.643,282.35h.678a.648.648,0,1,0,0-1.3H338.3V279.3h1.787a.624.624,0,0,0,.616.437.65.65,0,0,0,.651-.646v-.436a.656.656,0,0,0-.655-.651h-3.052a.646.646,0,0,0-.643.651V281.7a.643.643,0,0,0,.643.647Z" transform="translate(-297.644 -229.01)" fill="#1c9559"/>
    <path id="Path_43" data-name="Path 43" d="M337.648,346.35H340.7a.648.648,0,0,0,.648-.648v-3.054A.648.648,0,0,0,340.7,342h-3.054a.648.648,0,0,0-.648.648V345.7a.648.648,0,0,0,.648.648Zm.648-3.054h1.758v1.758H338.3Z" transform="translate(-297.644 -287.087)" fill="#1c9559"/>
    <path id="Path_44" data-name="Path 44" d="M338.321,409.054H338.3V407.3h1.752a.651.651,0,1,0,1.3,0v-.624a.676.676,0,0,0-.655-.673h-3.052a.666.666,0,0,0-.643.673v3.052a.625.625,0,0,0,.643.625h.678a.648.648,0,0,0,0-1.3Z" transform="translate(-297.643 -345.163)" fill="#1c9559"/>
    <path id="Path_45" data-name="Path 45" d="M357.935,284.729l-1.9,1.9-.577-.577a.648.648,0,0,0-.916.916L355.58,288a.648.648,0,0,0,.916,0l2.356-2.356a.648.648,0,1,0-.916-.916Z" transform="translate(-313.392 -234.943)" fill="#1c9559"/>
    <path id="Path_46" data-name="Path 46" d="M357.935,413.978l-1.9,1.9-.577-.577a.648.648,0,0,0-.916.916l1.035,1.035a.648.648,0,0,0,.916,0l2.356-2.356a.648.648,0,1,0-.916-.916Z" transform="translate(-313.392 -352.23)" fill="#1c9559"/>
    <path id="Path_47" data-name="Path 47" d="M418.608,295h-4.069a.648.648,0,1,0,0,1.3h4.069a.648.648,0,1,0,0-1.3Z" transform="translate(-367.419 -244.436)" fill="#1c9559"/>
    <path id="Path_48" data-name="Path 48" d="M418.608,359h-4.069a.648.648,0,1,0,0,1.3h4.069a.648.648,0,1,0,0-1.3Z" transform="translate(-367.419 -302.513)" fill="#1c9559"/>
    <path id="Path_49" data-name="Path 49" d="M418.608,423h-4.069a.648.648,0,1,0,0,1.3h4.069a.648.648,0,1,0,0-1.3Z" transform="translate(-367.419 -360.59)" fill="#1c9559"/>
  </g>
</svg>
