<svg xmlns="http://www.w3.org/2000/svg" xmlns:xlink="http://www.w3.org/1999/xlink" width="35" height="35" viewBox="0 0 35 35">
  <defs>
    <clipPath id="clip-path">
      <rect id="Rectangle_26" data-name="Rectangle 26" width="35" height="35" transform="translate(1139.731 356.365)" fill="#fff"/>
    </clipPath>
  </defs>
  <g id="product_icon" transform="translate(-1139.731 -356.365)" clip-path="url(#clip-path)">
    <path id="shop-bold" d="M7.282,6.9A12.417,12.417,0,0,0,6.5,9.869L5.45,15.1a5.357,5.357,0,1,0,10.58,1.583l.123-1.208a5.545,5.545,0,1,0,11.04-.067l.13,1.275A5.357,5.357,0,1,0,37.9,15.1L36.856,9.869A12.442,12.442,0,0,0,36.072,6.9a5.252,5.252,0,0,0-3.305-2.71A12.425,12.425,0,0,0,29.7,4H13.655a12.425,12.425,0,0,0-3.067.187A5.252,5.252,0,0,0,7.282,6.9ZM32.651,24.136a7.931,7.931,0,0,0,3.908-1.017v1.893c0,6.6,0,9.9-2.052,11.954C32.855,38.618,30.4,38.939,26.054,39V32.89c0-1.637,0-2.455-.352-3.064a2.626,2.626,0,0,0-.961-.961c-.609-.352-1.427-.352-3.064-.352s-2.455,0-3.064.352a2.626,2.626,0,0,0-.961.961c-.352.609-.352,1.427-.352,3.064V39c-4.342-.063-6.8-.385-8.453-2.036C6.8,34.915,6.8,31.613,6.8,25.011V23.119a7.993,7.993,0,0,0,9.356-1.133,8.173,8.173,0,0,0,11.049,0,7.964,7.964,0,0,0,5.454,2.15Z" transform="translate(1135.555 352.363)" fill="#fff"/>
  </g>
</svg>
