<svg id="product-buy" xmlns="http://www.w3.org/2000/svg" width="41.033" height="41.032" viewBox="0 0 41.033 41.032">
  <path id="_x38_" d="M2.013,17.8H41.756V19.08H2.013Z" transform="translate(-1.368 -12.093)" fill="#1c9559"/>
  <path id="_x37_" d="M10.6,8.956a.622.622,0,1,1-.618.618A.618.618,0,0,1,10.6,8.956Zm5.415,0a.622.622,0,0,1,0,1.245.622.622,0,1,1,0-1.245Zm-2.708,0a.622.622,0,0,1,0,1.245.622.622,0,1,1,0-1.245Z" transform="translate(-6.779 -6.085)" fill="#1c9559" fill-rule="evenodd"/>
  <path id="_x36_" d="M65.968,8.9a.632.632,0,0,1,.636.636.64.64,0,0,1-.636.645H44.152a.648.648,0,0,1-.645-.645.64.64,0,0,1,.645-.636Z" transform="translate(-29.56 -6.046)" fill="#1c9559"/>
  <path id="_x35_" d="M69.953,57.274a2.468,2.468,0,0,1,1.3-2.362,2.2,2.2,0,0,1,.935-.209,2.086,2.086,0,0,1,.936.218,2.475,2.475,0,0,1,1.327,2.353v6.188c.163.036.463.109.744.181a28.2,28.2,0,0,1,3.48.991,3.384,3.384,0,0,1,1.49,1.127,2.9,2.9,0,0,1,.627,1.7v8.413A2.344,2.344,0,0,1,78.457,78.2H72.279a4.068,4.068,0,0,1-2.908-1.508l-4.561-5.579a2.789,2.789,0,0,1-.691-2.589,2.11,2.11,0,0,1,.536-.9,2,2,0,0,1,.918-.518,2.71,2.71,0,0,1,2.48.791l1.9,1.653V57.274Zm1.854-1.208a1.261,1.261,0,0,0-.572,1.209V70.968a.621.621,0,0,1-.164.418.643.643,0,0,1-.9.063L67.218,68.86c-.445-.354-1.136-.845-1.662-.327-.509.5-.155,1.3.236,1.754l4.534,5.561a2.846,2.846,0,0,0,1.954,1.072h6.178A1.045,1.045,0,0,0,79.5,75.874V67.46a1.6,1.6,0,0,0-.354-.927,2.088,2.088,0,0,0-.9-.69,28.231,28.231,0,0,0-3.352-.954c-.181-.046-.364-.091-.818-.2a1.156,1.156,0,0,1-.654-.418,1.185,1.185,0,0,1-.255-.736v-6.26a1.243,1.243,0,0,0-.6-1.2.845.845,0,0,0-.382-.091A.962.962,0,0,0,71.807,56.066Z" transform="translate(-43.503 -37.167)" fill="#1c9559"/>
  <path id="_x34_" d="M17.178,31.206h8.214a1.551,1.551,0,0,1,1.536,1.536V44.553a1.511,1.511,0,0,1-.454,1.081v.009a1.539,1.539,0,0,1-1.081.446H13.08a1.56,1.56,0,0,1-1.09-.446v-.009a1.511,1.511,0,0,1-.454-1.081V32.742a1.511,1.511,0,0,1,.454-1.081,1.53,1.53,0,0,1,1.09-.454ZM20.795,42.9a.648.648,0,0,1-.645-.645.64.64,0,0,1,.645-.636h2.444a.632.632,0,0,1,.636.636.64.64,0,0,1-.636.645ZM21.93,32.487v4.37a.967.967,0,0,1-.155.527.979.979,0,0,1-1.481.191l-1.036-.927-1.1.963a1,1,0,0,1-1.472-.209,1.02,1.02,0,0,1-.155-.536V32.487H13.08a.249.249,0,0,0-.255.255V44.554a.249.249,0,0,0,.255.255H25.392a.249.249,0,0,0,.255-.255V32.742a.249.249,0,0,0-.255-.255H21.93Zm-1.281,0H17.815V36.2l.808-.7a1.015,1.015,0,0,1,.654-.236.97.97,0,0,1,.645.246l.727.663Z" transform="translate(-7.838 -21.202)" fill="#1c9559"/>
  <path id="_x33_" d="M71.122,52.359a.64.64,0,0,1,.646.636.648.648,0,0,1-.646.645h-.5A1.946,1.946,0,0,1,68.678,51.7V48.371a1.952,1.952,0,0,1,1.944-1.945H81.8a1.945,1.945,0,0,1,1.935,1.945V51.7A1.945,1.945,0,0,1,81.8,53.641h-1.89A.647.647,0,0,1,79.263,53a.64.64,0,0,1,.645-.636H81.8a.659.659,0,0,0,.654-.663V48.371a.659.659,0,0,0-.654-.663H70.622a.667.667,0,0,0-.663.663V51.7a.667.667,0,0,0,.663.663Z" transform="translate(-46.662 -31.543)" fill="#1c9559"/>
  <path id="_x32_" d="M12.181,87.517a.648.648,0,0,1-.645-.645.64.64,0,0,1,.645-.636h3.062a.64.64,0,0,1,.645.636.648.648,0,0,1-.645.645Zm0-2.708a.641.641,0,1,1,0-1.281h8.3a.641.641,0,0,1,0,1.281Z" transform="translate(-7.838 -56.752)" fill="#1c9559"/>
  <path id="_x31_" d="M18.281,32.846a.646.646,0,0,1,.636.645.638.638,0,0,1-.636.636H1.826a1.755,1.755,0,0,1-1.309-.573A1.947,1.947,0,0,1,0,32.219V1.881A1.9,1.9,0,0,1,1.881,0H39.142a1.9,1.9,0,0,1,1.89,1.881V32.219a1.864,1.864,0,0,1-.59,1.345,1.95,1.95,0,0,1-1.354.564.64.64,0,0,1-.645-.636.648.648,0,0,1,.645-.645.656.656,0,0,0,.464-.2.629.629,0,0,0,.2-.427V1.881a.608.608,0,0,0-.609-.6H1.881a.605.605,0,0,0-.6.6V32.219a.661.661,0,0,0,.173.464.523.523,0,0,0,.372.163Z" transform="translate(0)" fill="#1c9559"/>
</svg>
