<svg xmlns="http://www.w3.org/2000/svg" width="44.936" height="43.631" viewBox="0 0 44.936 43.631">
  <g id="registrar-club" transform="translate(0 -7.432)">
    <path id="Path_50" data-name="Path 50" d="M139.646,266.057a2.247,2.247,0,0,0-3.049-.865h0l-5.13,2.86-1.72-3.069,4.462-7.963a.878.878,0,0,0-1.531-.858l-3.937,7.026-3.937-7.026a.878.878,0,0,0-1.531.858l4.462,7.963-1.72,3.069-5.13-2.86h0a2.247,2.247,0,0,0-3.048.863l-1.055,1.88a2.245,2.245,0,0,0,.867,3.049l3,1.67a4.2,4.2,0,0,0,5.707-1.61l2.389-4.265,2.389,4.265a4.2,4.2,0,0,0,5.706,1.61l3-1.671a2.245,2.245,0,0,0,.864-3.05Zm-14.826,4.129a2.446,2.446,0,0,1-3.321.935l-3-1.669a.486.486,0,0,1-.19-.659l1.055-1.88a.492.492,0,0,1,.43-.247.482.482,0,0,1,.234.06l5.126,2.858Zm14.16-.735-3,1.67a2.446,2.446,0,0,1-3.32-.934l-.337-.6,5.126-2.858a.5.5,0,0,1,.665.189l1.053,1.876A.487.487,0,0,1,138.98,269.451Z" transform="translate(-106.272 -226.491)" fill="#fff"/>
    <path id="Path_51" data-name="Path 51" d="M218.3,155.556a3.775,3.775,0,1,0-2.673-1.1A3.774,3.774,0,0,0,218.3,155.556Zm-1.434-5.2a2.034,2.034,0,0,1,2.868,0,2.014,2.014,0,0,1,0,2.854,2.034,2.034,0,0,1-2.868,0,2.014,2.014,0,0,1,0-2.854Z" transform="translate(-195.693 -128.241)" fill="#fff"/>
    <path id="Path_52" data-name="Path 52" d="M232.116,15.958h0Z" transform="translate(-211.744 -7.778)" fill="#fff"/>
    <path id="Path_53" data-name="Path 53" d="M44.918,25.873A3.3,3.3,0,0,0,43.7,23.636L24.565,8.181a3.309,3.309,0,0,0-4.192,0L1.236,23.636a3.327,3.327,0,0,0-.492,4.682,3.344,3.344,0,0,0,4.686.491l.706-.57V50.186a.878.878,0,0,0,.878.878H37.924a.878.878,0,0,0,.878-.878V28.238l.706.57a3.345,3.345,0,0,0,4.687-.492,3.3,3.3,0,0,0,.723-2.443ZM7.89,49.308V26.82L22.47,15.045,37.046,26.821V49.308Zm34.941-22.1a1.586,1.586,0,0,1-2.222.233L23.021,13.234a.877.877,0,0,0-1.1,0L4.327,27.442a1.585,1.585,0,0,1-2.221-.232A1.571,1.571,0,0,1,2.338,25L21.475,9.546h0a1.567,1.567,0,0,1,1.985,0L42.6,25a1.572,1.572,0,0,1,.233,2.208Z" fill="#fff"/>
  </g>
</svg>
