<svg xmlns="http://www.w3.org/2000/svg" xmlns:xlink="http://www.w3.org/1999/xlink" width="35" height="35" viewBox="0 0 35 35">
  <defs>
    <clipPath id="clip-path">
      <rect id="Rectangle_27" data-name="Rectangle 27" width="35" height="35" transform="translate(713 467.365)" fill="#fff"/>
    </clipPath>
  </defs>
  <g id="ticket_icon" transform="translate(-713 -467.365)" clip-path="url(#clip-path)">
    <path id="event" d="M26.125,32a4.393,4.393,0,0,1-3.106-7.481,4.393,4.393,0,0,1,6.212,6.212A4.224,4.224,0,0,1,26.125,32ZM9.5,39A3.51,3.51,0,0,1,6,35.5V11A3.51,3.51,0,0,1,9.5,7.5h1.75V4h3.5V7.5h14V4h3.5V7.5H34A3.51,3.51,0,0,1,37.5,11V35.5A3.51,3.51,0,0,1,34,39Zm0-3.5H34V18H9.5Z" transform="translate(708.75 463.365)" fill="#fff"/>
  </g>
</svg>
