<svg xmlns="http://www.w3.org/2000/svg" width="20" height="19.999" viewBox="0 0 20 19.999">
  <g id="tickets" transform="translate(0 -0.007)">
    <path id="Path_37" data-name="Path 37" d="M19.156,13.565A1.334,1.334,0,0,0,20,12.326V9.8a1.358,1.358,0,0,0-1.356-1.356h-.138a1.358,1.358,0,0,0-.115-1.787L16.607,4.876A1.335,1.335,0,0,0,15.134,4.6a.71.71,0,0,1-.937-.936,1.334,1.334,0,0,0-.279-1.473L12.135.4a1.358,1.358,0,0,0-1.918,0L2.174,8.447H1.356A1.358,1.358,0,0,0,0,9.8v2.523a1.334,1.334,0,0,0,.844,1.239.71.71,0,0,1,0,1.324A1.335,1.335,0,0,0,0,16.128v2.523a1.358,1.358,0,0,0,1.356,1.356H18.644A1.358,1.358,0,0,0,20,18.651V16.128a1.335,1.335,0,0,0-.844-1.239.71.71,0,0,1,0-1.324ZM11.049,1.236a.18.18,0,0,1,.254,0L13.087,3.02a.151.151,0,0,1,.034.166,1.887,1.887,0,0,0,2.488,2.488.151.151,0,0,1,.166.034l1.784,1.784a.18.18,0,0,1,0,.254l-.7.7H13.793L8.815,3.47ZM7.983,4.3l4.146,4.146H3.837ZM1.176,18.651V16.128a.151.151,0,0,1,.093-.142,1.887,1.887,0,0,0,0-3.519.151.151,0,0,1-.093-.141V9.8a.18.18,0,0,1,.18-.18h13.35V18.83H1.356a.18.18,0,0,1-.18-.18Zm17.647-6.324a.151.151,0,0,1-.093.141,1.887,1.887,0,0,0,0,3.519.151.151,0,0,1,.093.142v2.523a.18.18,0,0,1-.18.18H15.882V9.624h2.761a.18.18,0,0,1,.18.18Z" transform="translate(0 0)" fill="#c8951f"/>
    <path id="Path_38" data-name="Path 38" d="M105,284.991h10.334v1.378H105Z" transform="translate(-101.439 -273.927)" fill="#c8951f"/>
    <path id="Path_39" data-name="Path 39" d="M105,344.991h10.334v1.378H105Z" transform="translate(-101.439 -331.6)" fill="#c8951f"/>
    <path id="Path_40" data-name="Path 40" d="M105,404.991h10.334v1.378H105Z" transform="translate(-101.439 -389.807)" fill="#c8951f"/>
  </g>
</svg>
