<svg xmlns="http://www.w3.org/2000/svg" width="18.848" height="18.848" viewBox="0 0 18.848 18.848">
  <g id="times" transform="translate(0.15 0.15)">
    <path id="Path_28" data-name="Path 28" d="M240.192,125.388l-2.586-1.94V119.5a.718.718,0,1,0-1.437,0v4.31a.717.717,0,0,0,.287.575l2.873,2.155a.718.718,0,0,0,.862-1.149Z" transform="translate(-227.614 -114.476)" fill="#c8c8c8" stroke="#c8c8c8" stroke-width="0.3"/>
    <path id="Path_29" data-name="Path 29" d="M9.274,0a9.274,9.274,0,1,0,9.274,9.274A9.284,9.284,0,0,0,9.274,0Zm0,17.111a7.837,7.837,0,1,1,7.837-7.837A7.847,7.847,0,0,1,9.274,17.111Z" fill="#c8c8c8" stroke="#c8c8c8" stroke-width="0.3"/>
  </g>
</svg>
